<svg width="18" height="13" viewBox="0 0 18 13" fill="none" xmlns="http://www.w3.org/2000/svg">
<path d="M6.52148 7.63184C6.4043 8.36751 6.09668 8.97135 5.59863 9.44336C5.10384 9.91536 4.53092 10.1514 3.87988 10.1514C3.49251 10.1514 3.16699 10.0732 2.90332 9.91699C2.63965 9.76074 2.44922 9.53125 2.33203 9.22852L2.20996 10H1.40918L2.72266 1.74805H3.52344L2.83984 6.04004C3.04818 5.7666 3.30697 5.55664 3.61621 5.41016C3.92546 5.26367 4.26725 5.19043 4.6416 5.19043C5.22103 5.19043 5.6849 5.36947 6.0332 5.72754C6.38477 6.08561 6.56055 6.55924 6.56055 7.14844C6.56055 7.23633 6.55729 7.31934 6.55078 7.39746C6.54427 7.47559 6.53451 7.55371 6.52148 7.63184ZM5.70117 7.6416C5.71094 7.58301 5.71745 7.52441 5.7207 7.46582C5.72721 7.40723 5.73047 7.34863 5.73047 7.29004C5.73047 6.87988 5.61003 6.55436 5.36914 6.31348C5.12826 6.07259 4.80599 5.95215 4.40234 5.95215C3.93359 5.95215 3.53483 6.10189 3.20605 6.40137C2.87728 6.69759 2.6722 7.10124 2.59082 7.6123C2.58105 7.67741 2.57292 7.74089 2.56641 7.80273C2.56315 7.86133 2.56152 7.91667 2.56152 7.96875C2.56152 8.39518 2.68522 8.73698 2.93262 8.99414C3.18001 9.2513 3.50228 9.37988 3.89941 9.37988C4.34863 9.37988 4.74089 9.21875 5.07617 8.89648C5.41146 8.57422 5.61979 8.15592 5.70117 7.6416ZM12.293 7.63184C12.1758 8.36751 11.8682 8.97135 11.3701 9.44336C10.8753 9.91536 10.3024 10.1514 9.65137 10.1514C9.264 10.1514 8.93848 10.0732 8.6748 9.91699C8.41113 9.76074 8.2207 9.53125 8.10352 9.22852L7.57129 12.5977H6.77051L7.92285 5.33203H8.72363L8.61133 6.04004C8.81966 5.7666 9.07845 5.55664 9.3877 5.41016C9.69694 5.26367 10.0387 5.19043 10.4131 5.19043C10.9925 5.19043 11.4564 5.36947 11.8047 5.72754C12.1562 6.08561 12.332 6.55924 12.332 7.14844C12.332 7.23633 12.3288 7.31934 12.3223 7.39746C12.3158 7.47559 12.306 7.55371 12.293 7.63184ZM11.4727 7.6416C11.4824 7.58301 11.4889 7.52441 11.4922 7.46582C11.4987 7.40723 11.502 7.34863 11.502 7.29004C11.502 6.87988 11.3815 6.55436 11.1406 6.31348C10.8997 6.07259 10.5775 5.95215 10.1738 5.95215C9.70508 5.95215 9.30632 6.10189 8.97754 6.40137C8.64876 6.69759 8.44368 7.10124 8.3623 7.6123C8.35254 7.67741 8.3444 7.74089 8.33789 7.80273C8.33464 7.86133 8.33301 7.91667 8.33301 7.96875C8.33301 8.39518 8.45671 8.73698 8.7041 8.99414C8.9515 9.2513 9.27376 9.37988 9.6709 9.37988C10.1201 9.37988 10.5124 9.21875 10.8477 8.89648C11.1829 8.57422 11.3913 8.15592 11.4727 7.6416ZM17.2246 5.50781L17.0928 6.3623C16.93 6.2321 16.738 6.13118 16.5166 6.05957C16.2952 5.98796 16.0706 5.95215 15.8428 5.95215C15.2894 5.95215 14.819 6.11328 14.4316 6.43555C14.0443 6.75456 13.8083 7.17936 13.7236 7.70996C13.7171 7.74577 13.7122 7.78483 13.709 7.82715C13.7057 7.86621 13.7041 7.92318 13.7041 7.99805C13.7041 8.41797 13.849 8.75326 14.1387 9.00391C14.4316 9.25456 14.8206 9.37988 15.3057 9.37988C15.5628 9.37988 15.8151 9.34408 16.0625 9.27246C16.3132 9.19759 16.5378 9.09342 16.7363 8.95996L16.6045 9.80957C16.3799 9.9235 16.139 10.0081 15.8818 10.0635C15.6247 10.1221 15.3561 10.1514 15.0762 10.1514C14.4154 10.1514 13.8848 9.96582 13.4844 9.59473C13.084 9.22038 12.8838 8.72884 12.8838 8.12012C12.8838 8.07129 12.8854 8.01758 12.8887 7.95898C12.8952 7.89714 12.9066 7.80436 12.9229 7.68066C13.04 6.94824 13.3786 6.35091 13.9385 5.88867C14.4984 5.42318 15.1641 5.19043 15.9355 5.19043C16.2025 5.19043 16.4401 5.21647 16.6484 5.26855C16.86 5.32064 17.0521 5.40039 17.2246 5.50781Z" fill="white"/>
<line x1="2" y1="3.75" x2="18" y2="3.75" stroke="white" stroke-width="0.5"/>
<line x1="1" y1="10.75" x2="17" y2="10.75" stroke="white" stroke-width="0.5"/>
</svg>
