<svg width="15" height="16" viewBox="0 0 15 16" fill="none" xmlns="http://www.w3.org/2000/svg">
<circle cx="7.5" cy="8.5" r="7.5" fill="#125B9F"/>
<path d="M10.5195 12.4141C10.1875 12.6289 9.74023 12.8105 9.17773 12.959C8.61523 13.1074 8.10352 13.1816 7.64258 13.1816C6.25586 13.1816 5.10742 12.7383 4.19727 11.8516C3.28711 10.9609 2.83203 9.83203 2.83203 8.46484C2.83203 7.13672 3.29492 6.02344 4.2207 5.125C5.14648 4.22266 6.29102 3.77148 7.6543 3.77148C8.2207 3.77148 8.75391 3.8418 9.25391 3.98242C9.75391 4.11914 10.1758 4.3125 10.5195 4.5625V5.69336C10.1484 5.39258 9.7168 5.15625 9.22461 4.98438C8.73633 4.80859 8.25391 4.7207 7.77734 4.7207C6.66016 4.7207 5.72461 5.07812 4.9707 5.79297C4.2168 6.50391 3.83984 7.39453 3.83984 8.46484C3.83984 9.54297 4.20117 10.4414 4.92383 11.1602C5.65039 11.875 6.54883 12.2324 7.61914 12.2324C8.14648 12.2324 8.66992 12.1465 9.18945 11.9746C9.71289 11.7988 10.1562 11.5605 10.5195 11.2598V12.4141Z" fill="white"/>
</svg>
