<svg width="98" height="49" viewBox="0 0 98 49" fill="none" xmlns="http://www.w3.org/2000/svg">
<g filter="url(#filter0_d_873_23)">
<rect x="4" width="90" height="41" rx="3" fill="white"/>
<path d="M4 4C30.6739 7.07044 46.6496 7.28455 73.9748 8.44974L64.6342 17.6357C75.2125 20.5265 94 22.398 94 22.398V36.9675C70.9353 35.7028 56.9063 33.4444 31.3449 26.9403L43.1151 20.5265C25.9377 17.4348 20.2321 15.2921 4.00022 12.9851L4 4Z" fill="#F5F5F5"/>
<path d="M4 4C30.6739 7.07044 46.6496 7.28455 73.9748 8.44974L64.6342 17.6357C75.2125 20.5265 94 22.398 94 22.398V36.9675C70.9353 35.7028 56.9063 33.4444 31.3449 26.9403L43.1151 20.5265C25.9377 17.4348 20.2321 15.2921 4.00022 12.9851L4 4Z" fill="url(#paint0_linear_873_23)" fill-opacity="0.2"/>
<path d="M14.8857 15.5522H25.125V17.5884H17.2075V20.584H23.9312V22.4956H17.2075V27H14.8857V15.5522Z" fill="black"/>
<path d="M47.7383 25.3672C48.1094 25.556 48.5098 25.7188 48.9395 25.8555C49.3757 25.9857 49.8216 26.0964 50.2773 26.1875C50.7396 26.2786 51.2018 26.347 51.6641 26.3926C52.1328 26.4316 52.5885 26.4512 53.0312 26.4512C53.8125 26.4512 54.4863 26.3958 55.0527 26.2852C55.6257 26.168 56.0944 26.0052 56.459 25.7969C56.8301 25.5885 57.1035 25.3411 57.2793 25.0547C57.4616 24.7617 57.5527 24.4395 57.5527 24.0879C57.5527 23.7298 57.4583 23.401 57.2695 23.1016C57.0872 22.8021 56.8105 22.5449 56.4395 22.3301C56.0749 22.1152 55.6126 21.9492 55.0527 21.832C54.4993 21.7083 53.8516 21.6465 53.1094 21.6465C52.7773 21.6465 52.403 21.6628 51.9863 21.6953C51.5697 21.7214 51.127 21.7669 50.6582 21.832C50.1895 21.8971 49.7012 21.9883 49.1934 22.1055C48.6855 22.2161 48.1712 22.3529 47.6504 22.5156V13.7363H59.3594V16.4805H50.5117V19.4395C51 19.3288 51.5111 19.2376 52.0449 19.166C52.5788 19.0879 53.1745 19.0488 53.832 19.0488C54.9062 19.0488 55.8665 19.166 56.7129 19.4004C57.5592 19.6348 58.2721 19.9701 58.8516 20.4062C59.4375 20.8424 59.8835 21.3698 60.1895 21.9883C60.4954 22.6003 60.6484 23.2871 60.6484 24.0488C60.6484 24.8366 60.4824 25.5495 60.1504 26.1875C59.8249 26.819 59.3398 27.3594 58.6953 27.8086C58.0573 28.2578 57.2695 28.6029 56.332 28.8438C55.401 29.0846 54.3301 29.2051 53.1191 29.2051C52.4941 29.2051 51.8724 29.1693 51.2539 29.0977C50.6419 29.0326 50.0462 28.9382 49.4668 28.8145C48.8874 28.6842 48.3307 28.528 47.7969 28.3457C47.2695 28.1569 46.7747 27.9453 46.3125 27.7109L47.7383 25.3672Z" fill="black"/>
<path d="M75.8574 22.3203H72.5176V20.1523H75.8574V16.8418H78.123V20.1523H81.4727V22.3203H78.123V25.8066H75.8574V22.3203Z" fill="black"/>
<line x1="36.5" y1="8" x2="36.5" y2="32" stroke="black"/>
</g>
<defs>
<filter id="filter0_d_873_23" x="0" y="0" width="98" height="49" filterUnits="userSpaceOnUse" color-interpolation-filters="sRGB">
<feFlood flood-opacity="0" result="BackgroundImageFix"/>
<feColorMatrix in="SourceAlpha" type="matrix" values="0 0 0 0 0 0 0 0 0 0 0 0 0 0 0 0 0 0 127 0" result="hardAlpha"/>
<feOffset dy="4"/>
<feGaussianBlur stdDeviation="2"/>
<feComposite in2="hardAlpha" operator="out"/>
<feColorMatrix type="matrix" values="0 0 0 0 0 0 0 0 0 0 0 0 0 0 0 0 0 0 0.25 0"/>
<feBlend mode="normal" in2="BackgroundImageFix" result="effect1_dropShadow_873_23"/>
<feBlend mode="normal" in="SourceGraphic" in2="effect1_dropShadow_873_23" result="shape"/>
</filter>
<linearGradient id="paint0_linear_873_23" x1="49" y1="4" x2="49" y2="36.9675" gradientUnits="userSpaceOnUse">
<stop offset="0.609375" stop-color="white"/>
<stop offset="1" stop-color="#D5D5D5"/>
</linearGradient>
</defs>
</svg>
