<svg width="71" height="68" viewBox="0 0 71 68" fill="none" xmlns="http://www.w3.org/2000/svg">
<path d="M16.6892 0.128418H47.9826L33.6771 24.4926L16.6892 53.9978L1.04248 26.9514L16.6892 0.128418Z" fill="#125B9F"/>
<path d="M63.2112 27.2365L47.8016 9.95023e-05L33.6405 24.4485L16.3256 53.7631L47.5705 54.063L63.2112 27.2365Z" fill="#DD0606"/>
<rect x="7" y="44.4391" width="50" height="20" rx="2" fill="#D9D9D9" fill-opacity="0.85"/>
<mask id="path-4-outside-1_228_1260" maskUnits="userSpaceOnUse" x="24.1987" y="17.1686" width="18" height="18" fill="black">
<rect fill="white" x="24.1987" y="17.1686" width="18" height="18"/>
<path d="M41.021 26.9615H34.1802V34.1686H32.2026V26.9615H25.3618V25.0426H32.2026V17.8795H34.1802V25.0426H41.021V26.9615Z"/>
</mask>
<path d="M41.021 26.9615H34.1802V34.1686H32.2026V26.9615H25.3618V25.0426H32.2026V17.8795H34.1802V25.0426H41.021V26.9615Z" fill="white"/>
<path d="M41.021 26.9615V27.1615H41.221V26.9615H41.021ZM34.1802 26.9615V26.7615H33.9802V26.9615H34.1802ZM34.1802 34.1686V34.3686H34.3802V34.1686H34.1802ZM32.2026 34.1686H32.0026V34.3686H32.2026V34.1686ZM32.2026 26.9615H32.4026V26.7615H32.2026V26.9615ZM25.3618 26.9615H25.1618V27.1615H25.3618V26.9615ZM25.3618 25.0426V24.8426H25.1618V25.0426H25.3618ZM32.2026 25.0426V25.2426H32.4026V25.0426H32.2026ZM32.2026 17.8795V17.6795H32.0026V17.8795H32.2026ZM34.1802 17.8795H34.3802V17.6795H34.1802V17.8795ZM34.1802 25.0426H33.9802V25.2426H34.1802V25.0426ZM41.021 25.0426H41.221V24.8426H41.021V25.0426ZM41.021 26.7615H34.1802V27.1615H41.021V26.7615ZM33.9802 26.9615V34.1686H34.3802V26.9615H33.9802ZM34.1802 33.9686H32.2026V34.3686H34.1802V33.9686ZM32.4026 34.1686V26.9615H32.0026V34.1686H32.4026ZM32.2026 26.7615H25.3618V27.1615H32.2026V26.7615ZM25.5618 26.9615V25.0426H25.1618V26.9615H25.5618ZM25.3618 25.2426H32.2026V24.8426H25.3618V25.2426ZM32.4026 25.0426V17.8795H32.0026V25.0426H32.4026ZM32.2026 18.0795H34.1802V17.6795H32.2026V18.0795ZM33.9802 17.8795V25.0426H34.3802V17.8795H33.9802ZM34.1802 25.2426H41.021V24.8426H34.1802V25.2426ZM40.821 25.0426V26.9615H41.221V25.0426H40.821Z" fill="white" mask="url(#path-4-outside-1_228_1260)"/>
</svg>
