<svg width="338" height="143" viewBox="0 0 338 143" fill="none" xmlns="http://www.w3.org/2000/svg">
<path d="M-52 0C63.5869 13.3053 132.815 14.2331 251.224 19.2822L210.748 59.0881C256.588 71.6146 338 79.7245 338 79.7245V142.859C238.053 137.379 177.261 127.592 66.4947 99.4078L117.499 71.6146C43.0632 58.2175 18.3393 48.9324 -51.9991 38.9352L-52 0Z" fill="#125B9F"/>
<path d="M-52 0C63.5869 13.3053 132.815 14.2331 251.224 19.2822L210.748 59.0881C256.588 71.6146 338 79.7245 338 79.7245V142.859C238.053 137.379 177.261 127.592 66.4947 99.4078L117.499 71.6146C43.0632 58.2175 18.3393 48.9324 -51.9991 38.9352L-52 0Z" fill="#1361A9" fill-opacity="0.04"/>
</svg>
