<svg width="40" height="40" viewBox="0 0 40 40" fill="none" xmlns="http://www.w3.org/2000/svg">
<circle cx="20" cy="20" r="20" fill="#1361A9"/>
<path d="M21.1094 13.6016L21.0469 26H19.6875L19.8281 17.7734L14.5156 26.3359L11.9141 17.7734L9.46094 26H8.08594L11.9922 13.6016L15 23.4688L21.1094 13.6016ZM32.9766 19.9844C32.6589 21.9688 31.849 23.4688 30.5469 24.4844C29.25 25.4948 27.4948 26 25.2812 26H22.9922L24.8906 13.9375H27.2656C29.1562 13.9375 30.599 14.3464 31.5938 15.1641C32.5885 15.9818 33.0859 17.1615 33.0859 18.7031C33.0859 18.875 33.0755 19.0599 33.0547 19.2578C33.0391 19.4557 33.013 19.6979 32.9766 19.9844ZM31.6328 19.9688C31.6641 19.7865 31.6875 19.6068 31.7031 19.4297C31.7188 19.2526 31.7266 19.0807 31.7266 18.9141C31.7266 17.7005 31.3411 16.7786 30.5703 16.1484C29.7995 15.5182 28.6693 15.2031 27.1797 15.2031H26.0469L24.5391 24.7344H25.5312C27.375 24.7344 28.7891 24.3464 29.7734 23.5703C30.7578 22.7943 31.3776 21.5938 31.6328 19.9688Z" fill="white"/>
</svg>
